<svg id="Capa_1" data-name="Capa 1" xmlns="http://www.w3.org/2000/svg" viewBox="0 0 431.51 498.23"><path d="M259.9,377.05c-3.27,13.05-9.8,24.45-18,35-8.48,10.89-19,19.66-29.34,28.69-4.73,4.15-9.4,8.38-14,12.71-3.88,3.69-3.8,3.78,1,5.95,4.5,2,6.11,5.36,4.49,9.43a12.26,12.26,0,0,1-4.25,5c-14.5,11.12-30.5,19.59-47.28,26.64a140.07,140.07,0,0,1-23.52,7.8,13.34,13.34,0,0,1-5.51.29c-1.9-.36-3.63-1.2-4-3.33a4.15,4.15,0,0,1,2.71-4.77c3.29-1.38,6.67-2.57,10-3.82,20.17-7.55,39.54-16.67,58-29.24-5.82-2.67-11.25-5.09-16.46-8-24-13.19-41.78-32.35-54.8-56.2q-2.93-5.36-5.84-10.73c-.8-1.46-1.58-1.86-3.1-.57C93.14,406.17,74,417,54.7,427.51A15,15,0,0,1,52,428.74a3.67,3.67,0,0,1-4.34-1.17,3.59,3.59,0,0,1,0-4.48,18.19,18.19,0,0,1,5.52-5.39q17.47-11.15,35-22.31a99.14,99.14,0,0,0,15.58-11.88,22.69,22.69,0,0,1,2-1.63c6.91-5.1,12.43-4.12,16.43,3.4,1.52,2.86,2.62,2.45,4.57.86a48.53,48.53,0,0,0,15.62-23.35c6.32-19.47,9.83-39.56,12.31-59.77,2.67-21.73,9.38-42.1,18.41-61.84,17-37.15,33.69-74.44,48.64-112.47,2-5.06,3.81-10.18,5.89-15.19,2.91-7,7.84-11.88,15.84-11.88s13.25,4.61,16.1,12a12.64,12.64,0,0,0,.61,1.35,3.74,3.74,0,0,0,.52.6c1.47-.41,1.36-1.85,1.81-2.88,2.62-6.08,6.76-10.37,13.66-11s11.89,2.48,15.64,8c2.88,4.24,4.42,9.11,6.21,13.82,15.76,41.44,34.28,81.69,52.35,122.15a200.72,200.72,0,0,1,16.41,57.45c2.46,19.84,5.66,39.61,12,58.7,3.16,9.54,7.87,18.07,16.11,24.3,2.15,1.62,3.32,2.1,4.9-.91,3.82-7.27,9.89-8.6,16.05-3.15,14.06,12.46,30.36,21.54,46.11,31.48A59.1,59.1,0,0,1,472,421c1.85,1.81,3.4,4.09,1.56,6.52s-4.35,1.31-6.64.09c-19.29-10.32-38.21-21.23-55.15-35.22-2.38-2-3.16-.36-4.08,1.35-4.52,8.35-8.92,16.76-14.34,24.62-14.49,21-33.64,36.21-56.76,46.66-1.46.66-2.92,1.33-4.36,2-.09,0-.1.22-.26.64a215.56,215.56,0,0,0,26.52,15.71,310.25,310.25,0,0,0,38.24,15.94A13.9,13.9,0,0,1,400,501c1.37,1,2.35,2.23,2,4.06a4.48,4.48,0,0,1-3.45,3.5,11,11,0,0,1-6.21-.25c-17.69-4.6-34.22-12-50-21.09-7.27-4.22-14.5-8.5-21-13.9-6.86-5.72-6-11.3,2.17-14.73l2.79-1.2a131.47,131.47,0,0,0-12.78-12.85c-11.63-10.12-23.52-20-33.32-32a100.46,100.46,0,0,1-18.2-33.64c-.29-.92.05-2.4-1.58-2.55a.51.51,0,0,0-.89.11C259.53,376.56,259.78,376.85,259.9,377.05ZM255.75,165c0-5.18.11-10.37-.06-15.54a4.59,4.59,0,0,0-3.58-4.66c-2.46-.54-3.93,1.12-5,3a59,59,0,0,0-2.81,6c-10.29,25.79-19.45,52-29.24,78C210,245.44,205,259.15,198,272a18.23,18.23,0,0,1-5.12,6.24,3.74,3.74,0,0,1-4.19.37c-1.41-.76-1.51-2.21-1.34-3.58a11.4,11.4,0,0,1,.88-3.18c13.47-30.9,23.9-63,36.37-94.26,4.7-11.8,8.4-24,14.64-35.16,2.1-3.76,4.85-7.61,9.23-7.87,5.44-.33,4.72-3.2,4.12-6.6-.5-2.79-1-5.6-1.56-8.37a12.16,12.16,0,0,0-2.31-5c-3.3-4.15-7.78-4.1-10.69.33a28.26,28.26,0,0,0-2.67,5.67C220,161.35,202.56,201.25,184.79,241c-9.45,21.16-17.38,42.65-19.88,66a294.45,294.45,0,0,1-10.83,54.37c-4.28,14.08-11,26.45-24,34.37-1.86,1.13-1.87,2.14-.83,3.82C132.68,405.1,136,410.71,140,416A128.07,128.07,0,0,0,182.2,451.9c1.42.77,2.52,1.17,3.83-.38,8.65-10.23,19.2-18.45,29.17-27.28,9.19-8.14,17.58-16.94,24.17-27.38,10.16-16.06,13.51-33.93,14-52.54.58-22.33.94-44.67,1.52-67,.33-12.82,1-25.64,1.32-38.46.13-5.41.7-10.87-.58-16.23-.48-2-1.52-3.88-3.77-4-2-.14-2.84,1.62-3.65,3.2a42,42,0,0,0-2.87,8.78c-5.56,21.62-10.76,43.35-18.71,64.27-2.32,6.1-4.39,12.35-8.08,17.83-1.15,1.71-2.59,3.27-4.88,2.23s-2.13-3.11-1.87-5.12a12.12,12.12,0,0,1,.69-2.49c8.44-23.61,15.6-47.59,21.75-71.89A140.24,140.24,0,0,1,239.37,218c2.64-6.7,7.29-10.51,12.77-9.84,2.49.3,2.87-.31,2.83-2.52C254.71,192.09,255.34,178.53,255.75,165Zm13.59,43.1a11.77,11.77,0,0,1,7.18,2.11c3.41,2.4,5.18,5.91,6.48,9.68,3.66,10.63,6,21.62,8.82,32.48,4.75,18.29,10.94,36.13,16.8,54.07a14.06,14.06,0,0,1,1.11,4.66c-.05,1.7-.45,3.26-2.21,3.9s-2.84-.33-3.87-1.51a23.33,23.33,0,0,1-4.19-7.36c-3.29-8.78-6.7-17.52-9.68-26.41-5.68-17-9.55-34.47-14.21-51.73-.7-2.62-1.32-5.3-3-7.53-1.85-2.48-4.4-2.27-5.84.49-1.06,2-1.05,4.28-1.05,6.51,0,25.81,1.29,51.58,1.82,77.37.38,19-.38,38.13,2.26,57.06a84.28,84.28,0,0,0,4.53,18.81c6.83,17.85,18.78,31.71,32.81,44.11,9.34,8.25,19.16,16,27.21,25.61,2,2.34,3.34,2.34,5.79,1a126.66,126.66,0,0,0,52-51.71c1.13-2.06,1.05-3-1-4.25-10.76-6.63-17.62-16.46-21.76-28.14-5.13-14.46-8.27-29.44-10.69-44.57-2.48-15.58-3.71-31.39-8.37-46.57-6-19.4-14.83-37.63-22.88-56.18-11.16-25.69-22.57-51.26-32.62-77.42q-5-12.95-10.22-25.8c-1.21-2.93-3.17-5.53-6.86-5.24-3.53.28-5.39,2.79-6.44,5.88a49.13,49.13,0,0,0-2.39,14.18c0,1-.14,1.9,1.32,2.14,6.44,1,10.41,5.17,13.25,10.7,6.52,12.66,10.75,26.25,15.94,39.44,10.11,25.72,18.85,52,29.43,77.5,1.55,3.76,3.18,7.49,4.7,11.27.86,2.15,1.4,4.49-1,5.94s-4.2-.12-5.82-1.78a21.56,21.56,0,0,1-3.67-5.53A343.27,343.27,0,0,1,309.11,239c-10.51-27.94-20.18-56.21-31.39-83.88a70,70,0,0,0-3.91-8c-.92-1.64-2.3-3-4.49-2.55s-3,2-3.24,4a37.2,37.2,0,0,0-.37,5.16c.31,17.28.69,34.55,1,51.83C266.73,207.76,266.92,209.23,269.34,208.07Z" transform="translate(-44.9 -12.72)" fill="#7d9579" stroke="#7a9274" stroke-miterlimit="10" stroke-width="4"/><path d="M228.14,59.59c.11,2.48-.64,4-2.5,4.62a4.59,4.59,0,0,1-5.56-1.74Q213,52.77,206,43a62.39,62.39,0,0,1-3.6-5.14c-1.22-2.1-1.31-4.41.72-6s4.25-1,5.91.91a224.28,224.28,0,0,1,18.44,24.92A6.89,6.89,0,0,1,228.14,59.59Z" transform="translate(-44.9 -12.72)" fill="#e1bd70" stroke="#dfbb6d" stroke-miterlimit="10" stroke-width="4"/><path d="M323.33,31.07a6.84,6.84,0,0,1-1.51,4q-7.92,11.13-15.93,22.21a9.22,9.22,0,0,1-1.49,1.63c-1.83,1.56-3.93,2.46-6,.79s-1.94-4-.65-6c2.52-3.94,5.26-7.74,8-11.56,3.13-4.42,6.27-8.83,9.53-13.17a4.68,4.68,0,0,1,5.61-1.71A3.85,3.85,0,0,1,323.33,31.07Z" transform="translate(-44.9 -12.72)" fill="#e1bd70" stroke="#dfbb6d" stroke-miterlimit="10" stroke-width="4"/><path d="M305.48,78.12c-1.61-.11-3.58-.31-4.08-2.56s.72-3.85,2.84-4.5c4.45-1.35,8.93-2.69,13.46-3.75,2.42-.56,4.91,0,5.51,2.9.66,3.15-1.51,4.37-4.18,4.91C314.59,76,310.31,77.66,305.48,78.12Z" transform="translate(-44.9 -12.72)" fill="#e1bd70" stroke="#dfbb6d" stroke-miterlimit="10" stroke-width="4"/><path d="M215,78c-4.79-1-9.66-1.68-14.24-3.58-1.87-.77-3.12-2.1-2.66-4.29a3.48,3.48,0,0,1,4.12-2.9,67.77,67.77,0,0,1,15.24,4.11,3.23,3.23,0,0,1,1.95,4C218.78,77.5,217,77.9,215,78Z" transform="translate(-44.9 -12.72)" fill="#e1bd70" stroke="#dfbb6d" stroke-miterlimit="10" stroke-width="4"/><path d="M305.8,348.62c-.12-.19-.38-.48-.32-.58a.52.52,0,0,1,.89-.11Z" transform="translate(-44.9 -12.72)" fill="#fff" stroke="#7a9274" stroke-miterlimit="10" stroke-width="4"/><rect x="210.49" y="2" width="11.68" height="71.09" rx="5.31" fill="#e1bd70" stroke="#dfbb6d" stroke-miterlimit="10" stroke-width="4"/><rect x="187.28" y="27" width="58.1" height="10.55" rx="4.96" fill="#e1bd70" stroke="#dfbb6d" stroke-miterlimit="10" stroke-width="4"/></svg>